<svg width="24" height="24" viewBox="0 0 24 24" fill="none" xmlns="http://www.w3.org/2000/svg">
<g opacity="0.35">
<path d="M10 13.6667C9.99771 14.5466 10.2033 15.4146 10.6 16.2C11.0704 17.1412 11.7935 17.9328 12.6884 18.4862C13.5832 19.0396 14.6145 19.3329 15.6667 19.3334C16.5466 19.3356 17.4146 19.1301 18.2 18.7334L22 20L20.7333 16.2C21.13 15.4146 21.3356 14.5466 21.3333 13.6667C21.3329 12.6145 21.0396 11.5833 20.4862 10.6884C19.9328 9.79352 19.1412 9.0704 18.2 8.60002C17.4146 8.20331 16.5466 7.99772 15.6667 8.00002H15.3333C13.9438 8.07668 12.6313 8.66319 11.6472 9.64726C10.6632 10.6313 10.0767 11.9438 10 13.3334V13.6667Z" fill="#C59FF5" stroke="#C59FF5" stroke-width="2" stroke-linecap="round" stroke-linejoin="round"/>
</g>
<path d="M14 9.66669C14.0023 10.5466 13.7967 11.4146 13.4 12.2C12.9296 13.1412 12.2065 13.9328 11.3116 14.4862C10.4168 15.0396 9.38549 15.3329 8.33333 15.3334C7.45342 15.3356 6.58541 15.1301 5.8 14.7334L2 16L3.26667 12.2C2.86995 11.4146 2.66437 10.5466 2.66667 9.66669C2.66707 8.61452 2.96041 7.58325 3.51381 6.68839C4.06722 5.79352 4.85884 5.0704 5.8 4.60002C6.58541 4.20331 7.45342 3.99772 8.33333 4.00002H8.66667C10.0562 4.07668 11.3687 4.66319 12.3528 5.64726C13.3368 6.63132 13.9233 7.94379 14 9.33335V9.66669Z" fill="#A56BEE" stroke="#A56BEE" stroke-width="2" stroke-linecap="round" stroke-linejoin="round"/>
</svg>
