<svg width="32" height="32" viewBox="0 0 32 32" fill="none" xmlns="http://www.w3.org/2000/svg">
<g opacity="0.35">
<path d="M14 17.6667C13.9977 18.5466 14.2033 19.4146 14.6 20.2C15.0704 21.1412 15.7935 21.9328 16.6884 22.4862C17.5832 23.0396 18.6145 23.3329 19.6667 23.3334C20.5466 23.3356 21.4146 23.1301 22.2 22.7334L26 24L24.7333 20.2C25.13 19.4146 25.3356 18.5466 25.3333 17.6667C25.3329 16.6145 25.0396 15.5833 24.4862 14.6884C23.9328 13.7935 23.1412 13.0704 22.2 12.6C21.4146 12.2033 20.5466 11.9977 19.6667 12H19.3333C17.9438 12.0767 16.6313 12.6632 15.6472 13.6473C14.6632 14.6313 14.0767 15.9438 14 17.3334V17.6667Z" fill="#C59FF5" stroke="#C59FF5" stroke-width="2" stroke-linecap="round" stroke-linejoin="round"/>
</g>
<path d="M18 13.6667C18.0023 14.5466 17.7967 15.4146 17.4 16.2C16.9296 17.1412 16.2065 17.9328 15.3116 18.4862C14.4168 19.0396 13.3855 19.3329 12.3333 19.3334C11.4534 19.3356 10.5854 19.1301 9.8 18.7334L6 20L7.26667 16.2C6.86995 15.4146 6.66437 14.5466 6.66667 13.6667C6.66707 12.6145 6.96041 11.5833 7.51381 10.6884C8.06722 9.79352 8.85884 9.0704 9.8 8.60002C10.5854 8.20331 11.4534 7.99772 12.3333 8.00002H12.6667C14.0562 8.07668 15.3687 8.66319 16.3528 9.64726C17.3368 10.6313 17.9233 11.9438 18 13.3334V13.6667Z" fill="#A56BEE" stroke="#A56BEE" stroke-width="2" stroke-linecap="round" stroke-linejoin="round"/>
</svg>
